<svg width="24" height="24" viewBox="0 0 24 24" fill="none" xmlns="http://www.w3.org/2000/svg">
<path d="M2.90938 8.48178H9.72756C10.2287 8.48178 10.6369 8.06684 10.6369 7.55556V2.92622C10.6369 2.4158 10.2296 2 9.72756 2H4.27302C3.02017 2 2 3.0382 2 4.31511V7.55556C2 8.06598 2.40739 8.48178 2.90938 8.48178ZM2.90938 4.31511C2.90938 3.54949 3.52132 2.92622 4.27302 2.92622H9.72756V7.55556H2.90938V4.31511Z" fill="white" stroke="white" stroke-width="0.6"/>
<path d="M20.3645 15.1123H13.5463C13.0452 15.1123 12.637 15.5272 12.637 16.0385V20.6679C12.637 21.1783 13.0444 21.5941 13.5463 21.5941H19.0009C20.2537 21.5941 21.2739 20.5559 21.2739 19.279V16.0385C21.2739 15.5281 20.8665 15.1123 20.3645 15.1123ZM20.3645 19.279C20.3645 20.0446 19.7526 20.6679 19.0009 20.6679H13.5463V16.0385H20.3645V19.279Z" fill="white" stroke="white" stroke-width="0.6"/>
<path d="M19.0009 2H13.5463C13.0452 2 12.637 2.41493 12.637 2.92622V12.1858C12.637 12.6962 13.0444 13.112 13.5463 13.112H20.3645C20.8657 13.112 21.2739 12.6971 21.2739 12.1858V4.31511C21.2739 3.03907 20.2546 2 19.0009 2ZM13.5463 12.1858V2.92622H19.0009C19.7526 2.92622 20.3645 3.54949 20.3645 4.31511V12.1858H13.5463Z" fill="white" stroke="white" stroke-width="0.6"/>
<path d="M4.27302 21.5934H9.72756C10.2287 21.5934 10.6369 21.1785 10.6369 20.6672V11.4077C10.6369 10.8972 10.2296 10.4814 9.72756 10.4814L2.90938 10.4823C2.40824 10.4823 2 10.8972 2 11.4085V19.2792C2 20.5552 3.01932 21.5943 4.27302 21.5943V21.5934ZM2.90938 11.4077H9.72756V20.6672H4.27302C3.52132 20.6672 2.90938 20.044 2.90938 19.2783V11.4077Z" fill="white" stroke="white" stroke-width="0.6"/>
</svg>
