<svg width="36" height="36" viewBox="0 0 36 36" fill="none" xmlns="http://www.w3.org/2000/svg">
<path d="M7.875 7.875L9.28125 30.375C9.34805 31.6751 10.2938 32.625 11.5313 32.625H24.4688C25.7112 32.625 26.6393 31.6751 26.7188 30.375L28.125 7.875" stroke="#0065EF" stroke-width="3" stroke-linecap="round" stroke-linejoin="round"/>
<path d="M5.625 7.875H30.375Z" fill="#0065EF"/>
<path d="M5.625 7.875H30.375" stroke="#0065EF" stroke-width="3" stroke-miterlimit="10" stroke-linecap="round"/>
<path d="M13.5 7.87501V5.06251C13.4994 4.84072 13.5426 4.62099 13.6271 4.41596C13.7117 4.21093 13.836 4.02464 13.9928 3.86782C14.1496 3.71099 14.3359 3.58671 14.541 3.50214C14.746 3.41756 14.9657 3.37436 15.1875 3.37501H20.8125C21.0343 3.37436 21.254 3.41756 21.459 3.50214C21.6641 3.58671 21.8504 3.71099 22.0072 3.86782C22.164 4.02464 22.2883 4.21093 22.3729 4.41596C22.4574 4.62099 22.5007 4.84072 22.5 5.06251V7.87501M18 12.375V28.125M12.9375 12.375L13.5 28.125M23.0625 12.375L22.5 28.125" stroke="#0065EF" stroke-width="3" stroke-linecap="round" stroke-linejoin="round"/>
</svg>
