<svg width="37" height="36" viewBox="0 0 37 36" fill="none" xmlns="http://www.w3.org/2000/svg">
<path d="M24.6714 11.9421H27.45C28.1869 11.9421 28.8936 12.2387 29.4147 12.7666C29.9358 13.2945 30.2286 14.0105 30.2286 14.757V29.3945C30.2286 30.141 29.9358 30.857 29.4147 31.3849C28.8936 31.9128 28.1869 32.2093 27.45 32.2093H10.7786C10.0416 32.2093 9.33491 31.9128 8.81382 31.3849C8.29274 30.857 8 30.141 8 29.3945V14.757C8 14.0105 8.29274 13.2945 8.81382 12.7666C9.33491 12.2387 10.0416 11.9421 10.7786 11.9421H13.5571" stroke="#0065EF" stroke-width="3.23368" stroke-linecap="round" stroke-linejoin="round"/>
<path d="M13.884 18.6863L19.4412 24.3638L24.9983 18.6863M19.4412 2.78906V23.2283" stroke="#0065EF" stroke-width="3.23368" stroke-linecap="round" stroke-linejoin="round"/>
</svg>
