<svg width="36" height="36" viewBox="0 0 36 36" fill="none" xmlns="http://www.w3.org/2000/svg">
<path d="M33.3422 17.2894C33.5748 17.5922 33.7029 17.9508 33.7102 18.3198C33.7175 18.6887 33.6037 19.0513 33.3833 19.3615C31.6857 21.7711 29.5007 23.8006 27.0657 25.2296C24.3241 26.8405 21.3736 27.6567 18.3036 27.6567C15.301 27.6567 12.2733 26.8154 9.54843 25.2243C7.07617 23.7802 4.87389 21.746 3.17943 19.3405M33.3422 17.2894L33.0578 17.5081M33.3422 17.2894C31.282 14.6104 28.91 12.5296 26.2918 11.1053C23.7244 9.70837 21.0368 9 18.3036 9C15.3248 9 12.3035 9.8483 9.56707 11.4528C7.09352 12.9016 4.88675 14.9282 3.18586 17.3139M33.3422 17.2894L33.0577 17.508C33.0577 17.508 33.0577 17.5081 33.0578 17.5081M33.0578 17.5081C33.2453 17.7523 33.3457 18.0374 33.3515 18.3269C33.3572 18.6164 33.2682 18.9041 33.0909 19.1536L33.09 19.1548C31.4205 21.5245 29.273 23.5182 26.8842 24.9201L26.884 24.9202C24.1955 26.4999 21.3075 27.2979 18.3036 27.2979C15.3679 27.2979 12.4023 26.4752 9.7294 24.9145M33.0578 17.5081C31.024 14.8635 28.689 12.8178 26.1203 11.4205L26.1203 11.4204C23.6018 10.0501 20.9727 9.35878 18.3036 9.35878C15.3927 9.35878 12.4337 10.1879 9.74854 11.7623L9.7484 11.7624C7.31958 13.185 5.15034 15.1766 3.47821 17.5219M9.7294 24.9145L9.54911 25.2231L9.72934 24.9145C9.72936 24.9145 9.72938 24.9145 9.7294 24.9145ZM9.7294 24.9145C7.30284 23.4971 5.13853 21.4986 3.47289 19.1341M3.47289 19.1341C3.47293 19.1341 3.47298 19.1342 3.47302 19.1342L3.17943 19.3405M3.47289 19.1341C3.47285 19.134 3.4728 19.1339 3.47275 19.1339L3.17943 19.3405M3.47289 19.1341C3.30141 18.8899 3.21313 18.61 3.21402 18.3275C3.21492 18.0448 3.30503 17.7653 3.47821 17.5219M3.17943 19.3405C2.96662 19.0375 2.8541 18.6855 2.85524 18.3263C2.85638 17.9671 2.97113 17.6157 3.18586 17.3139M3.18586 17.3139L3.478 17.5222C3.47807 17.5221 3.47814 17.522 3.47821 17.5219M3.18586 17.3139L3.47821 17.5219M18.2817 24.2841L18.2813 24.2841C16.5609 24.2823 14.9053 23.662 13.6792 22.5499C12.4519 21.4368 11.7539 19.9196 11.7519 18.3288V18.3283C11.7519 17.1421 12.1399 15.9859 12.8618 15.006C13.5834 14.0266 14.605 13.2682 15.794 12.8215C16.9828 12.3749 18.2892 12.2585 19.5493 12.4858C20.8094 12.7131 21.9712 13.275 22.8863 14.1049C23.8017 14.9352 24.4297 15.9974 24.6846 17.1596C24.9396 18.3221 24.8083 19.5267 24.3093 20.6193C23.8106 21.7112 22.9689 22.6388 21.8961 23.2889C20.8235 23.9389 19.5658 24.2841 18.2817 24.2841Z" fill="#0065EF" stroke="#0065EF" stroke-width="0.717565"/>
</svg>
