<svg width="24" height="24" viewBox="0 0 24 24" fill="none" xmlns="http://www.w3.org/2000/svg">
<path d="M15.4231 7.74988V5.87488C15.4231 5.3776 15.2306 4.90068 14.888 4.54905C14.5454 4.19742 14.0807 3.99988 13.5962 3.99988H4.82692C4.34239 3.99988 3.87771 4.19742 3.53509 4.54905C3.19248 4.90068 3 5.3776 3 5.87488V17.1249C3 17.6222 3.19248 18.0991 3.53509 18.4507C3.87771 18.8023 4.34239 18.9999 4.82692 18.9999H13.5962C14.0807 18.9999 14.5454 18.8023 14.888 18.4507C15.2306 18.0991 15.4231 17.6222 15.4231 17.1249V15.2499M18.3462 7.74988L22 11.4999M22 11.4999L18.3462 15.2499M22 11.4999H9.53125" stroke="white" stroke-width="2" stroke-linecap="round" stroke-linejoin="round"/>
</svg>
