<svg width="27" height="27" viewBox="0 0 27 27" fill="none" xmlns="http://www.w3.org/2000/svg">
<rect x="1" y="1" width="25" height="25" rx="12.5" fill="white"/>
<rect x="1" y="1" width="25" height="25" rx="12.5" stroke="#0065EF" stroke-width="2"/>
<path d="M10 10.0733C10 10.0733 10.0525 8.87022 11.2228 7.90553C11.9177 7.33277 12.7522 7.16689 13.5 7.15668C14.1829 7.14829 14.7932 7.26387 15.1581 7.44178C15.7819 7.7473 17 8.49105 17 10.0733C17 11.7384 15.9361 12.4931 14.7268 13.3247C13.5175 14.1563 13.2083 14.9719 13.2083 15.9067" stroke="#0065EF" stroke-width="2" stroke-miterlimit="10" stroke-linecap="round"/>
<path d="M13.3751 18.6772C13.3751 18.7692 13.3005 18.8438 13.2084 18.8438C13.1164 18.8438 13.0417 18.7692 13.0417 18.6772C13.0417 18.5851 13.1164 18.5105 13.2084 18.5105C13.3005 18.5105 13.3751 18.5851 13.3751 18.6772Z" fill="#0065EF" stroke="#0065EF" stroke-width="2"/>
</svg>
