<svg width="17" height="17" viewBox="0 0 17 17" fill="none" xmlns="http://www.w3.org/2000/svg">
<rect x="0.60102" y="0.60102" width="15.0255" height="15.0255" rx="7.51275" fill="white"/>
<rect x="0.60102" y="0.60102" width="15.0255" height="15.0255" rx="7.51275" stroke="#0065EF" stroke-width="1.20204"/>
<path d="M6 6.05414C6 6.05414 6.03155 5.33103 6.73493 4.75124C7.15258 4.407 7.65415 4.3073 8.10357 4.30116C8.51399 4.29612 8.8808 4.36558 9.10014 4.47251C9.47505 4.65614 10.2071 5.10315 10.2071 6.05414C10.2071 7.05486 9.56774 7.50845 8.84091 8.00826C8.11409 8.50808 7.92827 8.99826 7.92827 9.56008" stroke="#0065EF" stroke-width="1.20204" stroke-miterlimit="10" stroke-linecap="round"/>
<path d="M8.02841 11.2255C8.02841 11.2808 7.98356 11.3257 7.92824 11.3257C7.87292 11.3257 7.82807 11.2808 7.82807 11.2255C7.82807 11.1702 7.87292 11.1253 7.92824 11.1253C7.98356 11.1253 8.02841 11.1702 8.02841 11.2255Z" fill="#0065EF" stroke="#0065EF" stroke-width="1.20204"/>
</svg>
